<svg xmlns="http://www.w3.org/2000/svg" viewBox="0 0 40 40"><path fill="#8bb7f0" d="M9.512,26.5c0.262-5.559,4.866-10,10.488-10s10.227,4.441,10.488,10H9.512z"/><path fill="#4e7ab5" d="M20,17c5.176,0,9.447,3.954,9.95,9H10.05C10.553,20.954,14.824,17,20,17 M20,16 c-6.075,0-11,4.925-11,11h22C31,20.925,26.075,16,20,16L20,16z"/><path fill="#ffeea3" d="M20 1.5A6.5 6.5 0 1 0 20 14.5A6.5 6.5 0 1 0 20 1.5Z"/><path fill="#ba9b48" d="M20,2c3.308,0,6,2.692,6,6s-2.692,6-6,6s-6-2.692-6-6S16.692,2,20,2 M20,1c-3.866,0-7,3.134-7,7 s3.134,7,7,7s7-3.134,7-7S23.866,1,20,1L20,1z"/><path fill="none" stroke="#788b9c" d="M5.5,24.179v-2.714c0-3.004,2.425-5.444,5.429-5.462h0"/><path fill="#36404d" d="M10,13.999C9.765,13.999,10.235,13.999,10,13.999c-1.105,0-2,0.895-2,2s0.895,2,2,2c0.235,0-0.235,0,0,0c1.105,0,2-0.895,2-2S11.105,13.999,10,13.999z"/><g><path fill="#b0c1d4" d="M2.5 24.5H37.5V28.5H2.5z"/><path fill="#66798f" d="M37,25v3H3v-3H37 M38,24H2v5h36V24L38,24z"/></g><g><path fill="#b0c1d4" d="M9.647 38.5L4.798 28.5 35.202 28.5 30.353 38.5z"/><path fill="#66798f" d="M34.404,29l-4.364,9H9.96l-4.364-9H34.404 M36,28H4l5.333,11h21.333L36,28L36,28z"/></g></svg>