<svg xmlns="http://www.w3.org/2000/svg" xmlns:xlink="http://www.w3.org/1999/xlink" viewBox="0 0 48 48"><defs><radialGradient id="Ui1GmBv0kJW_D8wG~otuIn" cx="20.671" cy="40.088" r="10.049" gradientTransform="matrix(1 0 0 .38979 0 24.462)" gradientUnits="userSpaceOnUse"><stop offset="0" stop-color="#4c5185"/><stop offset=".705" stop-color="#2d447e"/><stop offset="1" stop-color="#203469"/></radialGradient><radialGradient id="Ui1GmBv0kJW_D8wG~otuIe" cx="21.789" cy="641.249" r="2.814" gradientTransform="rotate(-18 -1926.335 328.2)" gradientUnits="userSpaceOnUse"><stop offset="0" stop-color="#ffd226"/><stop offset=".325" stop-color="#fdcd23"/><stop offset=".73" stop-color="#f6bd1b"/><stop offset=".999" stop-color="#f0af13"/></radialGradient><radialGradient id="Ui1GmBv0kJW_D8wG~otuIf" cx="17.904" cy="634.648" r="4.618" gradientTransform="matrix(-.30925 -.95098 .89792 -.29199 -546.88 221.186)" gradientUnits="userSpaceOnUse"><stop offset="0" stop-color="#ffe16e"/><stop offset=".393" stop-color="#ffd226"/><stop offset=".59" stop-color="#fdcd23"/><stop offset=".836" stop-color="#f6bd1b"/><stop offset=".999" stop-color="#f0af13"/></radialGradient><radialGradient id="Ui1GmBv0kJW_D8wG~otuIr" cx="21.385" cy="32.506" r="5.095" gradientTransform="matrix(.69105 -.7228 .38721 .3702 -5.98 35.93)" xlink:href="#Ui1GmBv0kJW_D8wG~otuIc"/><radialGradient id="Ui1GmBv0kJW_D8wG~otuIq" cx="211.95" cy="49.595" r="6.503" gradientTransform="matrix(.00586 -.99994 .5014 .0049 -3.686 236.191)" xlink:href="#Ui1GmBv0kJW_D8wG~otuIb"/><radialGradient id="Ui1GmBv0kJW_D8wG~otuIi" cx="18.24" cy="634.656" r=".256" gradientTransform="rotate(-18 -1926.335 328.2)" gradientUnits="userSpaceOnUse"><stop offset="0" stop-color="#1c1911"/><stop offset=".999" stop-color="#171714"/></radialGradient><radialGradient id="Ui1GmBv0kJW_D8wG~otuIj" cx="21.324" cy="628.435" r="7.124" gradientTransform="rotate(-18 -1926.335 328.2)" gradientUnits="userSpaceOnUse"><stop offset="0" stop-color="#8c6239"/><stop offset=".314" stop-color="#754c25"/><stop offset=".554" stop-color="#603813"/><stop offset="1" stop-color="#573210"/></radialGradient><radialGradient id="Ui1GmBv0kJW_D8wG~otuIk" cx="33.557" cy="43.736" r="3.73" gradientUnits="userSpaceOnUse"><stop offset=".002" stop-color="#3a434a"/><stop offset="1" stop-color="#1c2024"/></radialGradient><radialGradient id="Ui1GmBv0kJW_D8wG~otuIl" cx="34.701" cy="42.573" r="2.786" gradientUnits="userSpaceOnUse"><stop offset=".516" stop-color="#ccc"/><stop offset=".789" stop-color="#b9bec1"/><stop offset=".992" stop-color="#a7b2b8"/></radialGradient><radialGradient id="Ui1GmBv0kJW_D8wG~otuIm" cx="18.127" cy="36.909" r="10.095" gradientTransform="rotate(-21.752 75.732 25.841) scale(1 .40026)" gradientUnits="userSpaceOnUse"><stop offset="0" stop-color="#4c5185"/><stop offset=".623" stop-color="#2d447e"/><stop offset="1" stop-color="#203469"/></radialGradient><radialGradient id="Ui1GmBv0kJW_D8wG~otuIa" cx="21.48" cy="636.602" r="3.922" data-name="New Gradient Swatch 1" gradientTransform="matrix(.51393 -.85783 .63158 .37838 -391.653 -202.85)" gradientUnits="userSpaceOnUse"><stop offset="0" stop-color="#8c6239" stop-opacity=".9"/><stop offset="1" stop-color="#8c6239" stop-opacity="0"/></radialGradient><radialGradient id="Ui1GmBv0kJW_D8wG~otuIc" cx="22.966" cy="28.386" r="4.315" gradientTransform="rotate(-92.069 28.631 22.512) scale(1 .58615)" gradientUnits="userSpaceOnUse"><stop offset="0" stop-color="#ffe16e"/><stop offset=".629" stop-color="#ffd226"/><stop offset=".75" stop-color="#fdcd23"/><stop offset=".899" stop-color="#f6bd1b"/><stop offset=".999" stop-color="#f0af13"/></radialGradient><radialGradient id="Ui1GmBv0kJW_D8wG~otuIb" cx="21.734" cy="28.176" r="11.479" gradientTransform="matrix(-.12841 -.99172 .54047 -.06998 9.297 51.702)" gradientUnits="userSpaceOnUse"><stop offset=".002" stop-color="#f5432c"/><stop offset=".206" stop-color="#e83e28"/><stop offset="1" stop-color="#b82c1a"/></radialGradient><radialGradient id="Ui1GmBv0kJW_D8wG~otuIp" cx="24.538" cy="105.447" r="5.018" gradientTransform="matrix(.00537 -1.20115 .30896 .00199 -8.172 57.76)" gradientUnits="userSpaceOnUse"><stop offset=".008" stop-color="#751a1a"/><stop offset=".209" stop-color="#751a1a" stop-opacity=".97"/><stop offset=".39" stop-color="#751a1a" stop-opacity=".876"/><stop offset=".563" stop-color="#751a1a" stop-opacity=".72"/><stop offset=".731" stop-color="#751a1a" stop-opacity=".499"/><stop offset=".894" stop-color="#751a1a" stop-opacity=".218"/><stop offset="1" stop-color="#751a1a" stop-opacity="0"/></radialGradient><radialGradient id="Ui1GmBv0kJW_D8wG~otuIt" cx="17.5" cy="35.984" r="3.408" gradientTransform="rotate(-26.984 31.205 32.695) scale(1 .81723)" gradientUnits="userSpaceOnUse"><stop offset=".177" stop-color="#ffe16e"/><stop offset=".629" stop-color="#ffd226"/><stop offset=".75" stop-color="#fdcd23"/><stop offset=".899" stop-color="#f6bd1b"/><stop offset=".999" stop-color="#f0af13"/></radialGradient><linearGradient id="Ui1GmBv0kJW_D8wG~otuIo" x1="21.091" x2="28.468" y1="28.636" y2="29.9" gradientUnits="userSpaceOnUse"><stop offset="0" stop-color="#661c1c" stop-opacity="0"/><stop offset=".25" stop-color="#661c1c" stop-opacity=".033"/><stop offset=".459" stop-color="#661c1c" stop-opacity=".134"/><stop offset=".655" stop-color="#661c1c" stop-opacity=".305"/><stop offset=".84" stop-color="#661c1c" stop-opacity=".544"/><stop offset=".992" stop-color="#661c1c" stop-opacity=".8"/></linearGradient><linearGradient id="Ui1GmBv0kJW_D8wG~otuId" x1="30.998" x2="20.897" y1="38.318" y2="35.511" gradientUnits="userSpaceOnUse"><stop offset="0" stop-color="#172a4f"/><stop offset="1" stop-color="#172a4f" stop-opacity="0"/></linearGradient><linearGradient id="Ui1GmBv0kJW_D8wG~otuIh" x1="18.054" x2="18.732" y1="634.655" y2="634.655" gradientTransform="rotate(-18 -1926.335 328.2)" gradientUnits="userSpaceOnUse"><stop offset="0" stop-color="#c69c6d"/><stop offset="1" stop-color="#754c24"/></linearGradient><linearGradient id="Ui1GmBv0kJW_D8wG~otuIg" x1="22.419" x2="23.422" y1="636.417" y2="635.21" gradientTransform="rotate(-18 -1926.335 328.2)" xlink:href="#Ui1GmBv0kJW_D8wG~otuIa"/><linearGradient id="Ui1GmBv0kJW_D8wG~otuIs" x1="17.947" x2="18.086" y1="37.491" y2="38.393" gradientTransform="rotate(11.925 18.017 37.946)" xlink:href="#Ui1GmBv0kJW_D8wG~otuId"/></defs><path fill="url(#Ui1GmBv0kJW_D8wG~otuIe)" d="M25.20838,22.13389l.0015-.00074-2.368-4.636-2.79316,1.4236,2.368,4.636.00149-.00076a1.56617,1.56617,0,0,0,2.79021-1.42211Z"/><path fill="url(#Ui1GmBv0kJW_D8wG~otuIa)" d="M25.20838,22.13389l.0015-.00074-2.368-4.636-2.79316,1.4236,2.368,4.636.00149-.00076a1.56617,1.56617,0,0,0,2.79021-1.42211Z"/><path fill="url(#Ui1GmBv0kJW_D8wG~otuIf)" d="M19.48169,12.81377c-1.17925.38317-4.02507,1.77-3.1068,4.59611.28678.88262.5587.70132.727,1.21916.22577.69486.06149.88187-.32927,1.5077a.39523.39523,0,0,0,.35371.63634.46658.46658,0,0,1,.55279.44438c.18191.91675.48691.20914.74936,1.43153.10355.48229.83693.41495,1.12046.32283,1.583-.51436,2.68426-.59943,3.24994-2.12937a5.25911,5.25911,0,0,0,.18043-1.97111c1.734-.56341,1.4377-2.69217,1.23357-3.3204C23.44649,13.19235,21.71586,12.08785,19.48169,12.81377Z"/><path fill="#805b2a" d="M18.338,17.54265c-.10221.00654-.21681.02075-.32526.0373-.10985.01685-.21942.0374-.32843.06005q-.327.0693-.647.16587a.25974.25974,0,1,1-.14933-.49756.28929.28929,0,0,1,.05-.00979q.35155-.0353.70463-.04193c.11768-.00158.2353-.00084.35312.00379.11917.00511.23275.012.35836.0284a.12737.12737,0,0,1-.00828.2534Z"/><path fill="#f0af13" d="M19.16142,20.9273c.02754-.05237-.03231-.1238-.07853-.09412a3.07674,3.07674,0,0,1-1.22844.42424c-.13394.01925-.18323.20154-.12359.3475h0a.26339.26339,0,0,0,.35453.14931A1.87723,1.87723,0,0,0,19.16142,20.9273Z"/><path fill="url(#Ui1GmBv0kJW_D8wG~otuIg)" d="M23.23133,17.61849a.63584.63584,0,0,0-.685-.30547.45779.45779,0,0,0-.276.30493c-.0791.23049-.0983.5812.19391.6679.09057.02687.20068.02167.26259.09994.06674.08437.03276.27018.01556.37068a1.02764,1.02764,0,0,0,.28247-.18849A.749.749,0,0,0,23.23133,17.61849Z"/><path fill="#fff" d="M19.13842,18.51959a4.326,4.326,0,0,1-1.1461.85469c-.05135.02685-.042.00164-.07593-.02892a.36963.36963,0,0,1-.05385-.04626,2.17328,2.17328,0,0,1-.1404-.20754,1.37146,1.37146,0,0,1-.19841-.58785,2.10052,2.10052,0,0,1-.0073-.31824c.00133-.03.00324-.0611.006-.09249a1.61417,1.61417,0,0,1,1.61213.31793A.07446.07446,0,0,1,19.13842,18.51959Z"/><path fill="url(#Ui1GmBv0kJW_D8wG~otuIh)" d="M18.23386,18.59913a.61648.61648,0,0,1-.31747.74623.159.159,0,0,1-.05385-.04626,2.17328,2.17328,0,0,1-.1404-.20754,1.37146,1.37146,0,0,1-.19841-.58785,2.10052,2.10052,0,0,1-.0073-.31824A.618.618,0,0,1,18.23386,18.59913Z"/><path fill="url(#Ui1GmBv0kJW_D8wG~otuIi)" d="M17.94217,18.69391a.31126.31126,0,0,1-.20054.39224l-.01949.00541a1.37146,1.37146,0,0,1-.19841-.58785.13751.13751,0,0,1,.02537-.0101A.312.312,0,0,1,17.94217,18.69391Z"/><circle cx="17.876" cy="18.49" r=".135" fill="#fff"/><path fill="#805b2a" d="M19.19481,18.46339a1.55529,1.55529,0,0,0-1.67219-.37006C16.54908,18.43252,18.31857,17.96228,19.19481,18.46339Z"/><path fill="url(#Ui1GmBv0kJW_D8wG~otuIj)" d="M15.98768,16.64207c1.84946.02648,2.3387-1.45586,4.043-.41509,1.31221.80131.7257,1.53846,1.62416,2.25571.06738.05379.18433.06056.16926-.02433-.51466-2.898,2.83288-1.21836,1.15763.41711,0,0,.031.29637.04156.58769.017.47142.95347.81835,1.19873.90257.18914.065.02968-.40432-.02114-.84918-.10168-.89009,1.40736-.6547.85743-4.36281-.37225-2.51012-4.29106-3.86671-6.48059-3.15529-1.765.5735-4.013,2.71158-3.55391,4.12437A1.06418,1.06418,0,0,0,15.98768,16.64207Z"/><path fill="url(#Ui1GmBv0kJW_D8wG~otuIk)" d="M35.83519,44.83905a.66246.66246,0,0,1-.23442.27884,1.02674,1.02674,0,0,1-.72423.14435,3.17842,3.17842,0,0,1-1.02528-.4602,8.90578,8.90578,0,0,0-3.66307-1.13384c-.269-.02221-.586-.06045-.7156-.29734a.80424.80424,0,0,1-.07155-.301l-.18136-1.77293a1.12015,1.12015,0,0,1,.34421-1.04995,1.65332,1.65332,0,0,1,.61565-.45157,1.44761,1.44761,0,0,1,.49722-.1061,3.02271,3.02271,0,0,1,1.5595.47871,8.48135,8.48135,0,0,1,3.46443,3.7149A1.18407,1.18407,0,0,1,35.83519,44.83905Z"/><path fill="url(#Ui1GmBv0kJW_D8wG~otuIl)" d="M35.83519,44.84472a.66243.66243,0,0,1-.23442.27883A.40223.40223,0,0,0,35.602,45.015a5.352,5.352,0,0,0-1.07216-2.074,2.96463,2.96463,0,0,0-1.75443-1.05364,8.83668,8.83668,0,0,1-1.22883-.16409.92429.92429,0,0,1-.71683-.8908,3.36118,3.36118,0,0,0,.10241-.475.62892.62892,0,0,0-.48857-.54779,1.06723,1.06723,0,0,0-.26405-.00864,1.44761,1.44761,0,0,1,.49722-.1061,3.02279,3.02279,0,0,1,1.5595.4787,8.4814,8.4814,0,0,1,3.46443,3.7149A1.18409,1.18409,0,0,1,35.83519,44.84472Z"/><path fill="url(#Ui1GmBv0kJW_D8wG~otuIm)" d="M29.87234,39.21c-.01356.03948-.02714.079-.04317.11721a2.26314,2.26314,0,0,1-.78963.99319c-.03454.02468-.07032.05059-.10609.074-.042.02714-.08391.05429-.12708.079a3.31389,3.31389,0,0,1-.29982.15915,5.81133,5.81133,0,0,1-3.44594.33436c-.32447.08759-6.72656,1.36578-8.76229,1.93332s-2.9993.53793-3.87775-.37137a1.75326,1.75326,0,0,1-.23195-1.60021,2.987,2.987,0,0,1,1.52989-1.57553c.43552-.19,7.60129-3.79756,8.233-4.04061A35.20726,35.20726,0,0,1,26.84589,36.318c.03948.00987.079.01974.11844.03084q.83094.21284,1.8149.48611c.04316.01234.08759.02468.132.037.27884.079.56754.16039.86488.24676A3.32,3.32,0,0,1,29.87234,39.21Z"/><path fill="url(#Ui1GmBv0kJW_D8wG~otuIn)" d="M29.70579,43.75981a.87074.87074,0,0,1-.72053.37259H15.299c-2.74639,0-3.18068-1.98514-3.18068-2.67359,0-1.24858,1.97651-1.72852,3.69269-1.90988.227-.02468.44786-.04319.66008-.058,1.02526-.07032,1.82721-.04564,1.82721-.04564H28.99759a.87628.87628,0,0,1,.7156.3652,4.04489,4.04489,0,0,1,.422.73779c.01849.04195.037.08513.053.12831A3.18514,3.18514,0,0,1,29.70579,43.75981Z"/><path fill="#192d5b" d="M30.18819,40.67449c-.14434-.00986-.28748-.02837-.42688-.04565a5.27845,5.27845,0,0,0-.60826-.05181H29.121c-.04194,0-.0839.00247-.12707.00493-.15669.00864-.31338.02838-.4676.04812-.10365.01234-.20729.02591-.31092.03578a10.45139,10.45139,0,0,1-1.288.01357l-.1826-.00494c-1.30288-.03577-2.63042.00124-3.91479.037-.91423.02591-1.842.05182-2.77352.05182a31.18955,31.18955,0,0,1-3.37932-.16039,1.80439,1.80439,0,0,1-.62306-.14929.68389.68389,0,0,1-.39481-.52559.4766.4766,0,0,1,.13079-.3615.15864.15864,0,0,1,.021-.01973.37412.37412,0,0,1,.2665-.10858c.03084.00124.06539.00494.09993.00864.11845.01481.174.01357.19-.02714a.13632.13632,0,0,0,.00371-.06539.34572.34572,0,0,1,.00494-.09994c.03455-.12708.18136-.1678.22948-.18137a3.61733,3.61733,0,0,1,1.18071-.06168c.10981.0074.21839.01357.32819.01727.53422.0185,2.18625-.11845,3.5138-.227.74889-.06169,1.409-.116,1.79391-.13695q.06847-.00553.12584-.0074l.03578-.00123a3.5578,3.5578,0,0,0,2.61314-.94878,3.60105,3.60105,0,0,0,.72053-2.739l.12337-.00494a3.71471,3.71471,0,0,1-.7526,2.82782,3.6695,3.6695,0,0,1-2.6995.98825c-.33558.01235-1.0845.074-1.95061.14435-1.40033.116-2.987.24553-3.5286.22826-.1098-.00371-.2196-.00987-.32942-.01728a3.53254,3.53254,0,0,0-1.14124.05676c-.08513.02344-.132.05552-.14311.09377a.24843.24843,0,0,0-.00124.06169.2568.2568,0,0,1-.01233.11967.1908.1908,0,0,1-.0111.02221c-.06169.1098-.20236.09253-.30721.08143-.03084-.00371-.06169-.0074-.09008-.00864a.251.251,0,0,0-.19493.08883.35762.35762,0,0,0-.09624.26774.56114.56114,0,0,0,.327.42441,1.6613,1.6613,0,0,0,.5811.13695,44.95,44.95,0,0,0,6.13682.10858c1.28558-.03579,2.61436-.0728,3.92093-.037l.1826.00617a10.45062,10.45062,0,0,0,1.27325-.0148c.10241-.00988.20359-.02222.306-.03579.14559-.0185.29611-.03577.44662-.04565.04318-.00247.08636-.00493.12832-.00493a.64551.64551,0,0,1,.06908-.00247,5.17786,5.17786,0,0,1,.62183.053c.11844.01481.23935.03085.359.03948C30.15364,40.58814,30.17215,40.63131,30.18819,40.67449Z"/><path fill="#192d5b" d="M29.21721,41.93911a5.94526,5.94526,0,0,1-.81676,2.19119h-.14189a5.92428,5.92428,0,0,0,.8365-2.206A3.38544,3.38544,0,0,0,28.9939,40.582c-.01111-.04071-.02345-.08143-.037-.12091a2.52125,2.52125,0,0,0-.60824-1.01786h.17025a2.70548,2.70548,0,0,1,.56631,1.01293c.01355.04071.02467.08019.03577.12091A3.55355,3.55355,0,0,1,29.21721,41.93911Z"/><path fill="#192d5b" d="M23.451,38.755a1.16674,1.16674,0,0,1,.16465-1.02449,3.89921,3.89921,0,0,1,.43321-.53882c.07506-.08277.15012-.16554.22139-.25121a1.48278,1.48278,0,0,0,.40369-.8716l.12325.00434a1.5964,1.5964,0,0,1-.43212.94606c-.07235.08711-.14862.17121-.22483.25531a3.80883,3.80883,0,0,0-.42.52146,1.04615,1.04615,0,0,0-.154.91461Z"/><path fill="#192d5b" d="M29.87234,39.21c-.01356.03948-.02714.079-.04317.11721a3.24916,3.24916,0,0,1-.6058-.40221.9489.9489,0,0,1-.18507-.19247,1.13878,1.13878,0,0,1-.13077-.63415v-.02962a7.02483,7.02483,0,0,0-.1283-1.23378l-.00124-.0074.12091-.02344c.00494.0222.00863.04565.01233.06786a7.07235,7.07235,0,0,1,.11968,1.1943v.03084a1.03731,1.03731,0,0,0,.1098.5663.82755.82755,0,0,0,.16164.16656A3.03682,3.03682,0,0,0,29.87234,39.21Z"/><path fill="url(#Ui1GmBv0kJW_D8wG~otuId)" d="M29.99571,38.29578c-5.19852-.0913-7.69752-2.037-8.13428-2.64769h2.09619c.739.14929,1.694.364,2.88827.66994.03948.00987.079.01974.11844.03084q.83094.21284,1.8149.48611c.04316.01234.08759.02468.132.037.27884.079.56754.16039.86488.24676A4.24855,4.24855,0,0,1,29.99571,38.29578Z"/><path fill="url(#Ui1GmBv0kJW_D8wG~otuIb)" d="M24.43755,21.49046c-1.35172,0-3.38731,2.548-3.83071,4.16316-.42995,1.56614.4023,3.29285.63327,4.8493a28.12694,28.12694,0,0,1,.36624,4.77687c-.09228.86,6.17271,2.6108,8.13748,2.40343.9381-.099-.84143-5.35428-1.13655-6.85334S28.34245,21.49046,24.43755,21.49046Z"/><path fill="url(#Ui1GmBv0kJW_D8wG~otuIo)" d="M24.43755,21.49046c-1.35172,0-3.38731,2.548-3.83071,4.16316-.42995,1.56614.4023,3.29285.63327,4.8493a28.12694,28.12694,0,0,1,.36624,4.77687c-.09228.86,6.17271,2.6108,8.13748,2.40343.9381-.099-.84143-5.35428-1.13655-6.85334S28.34245,21.49046,24.43755,21.49046Z"/><ellipse cx="24.538" cy="28.496" fill="url(#Ui1GmBv0kJW_D8wG~otuIp)" rx="1.815" ry="5.049"/><path fill="url(#Ui1GmBv0kJW_D8wG~otuIc)" d="M24.83079,23.43012a1.70242,1.70242,0,0,0-.22658-.0153,1.67767,1.67767,0,0,0-1.65559,1.44836l-.02784.20616a10.48023,10.48023,0,0,0-.07632,1.60632c-.00061.1741.00819.34965.01668.51929.00464.09326.00934.18651.01283.28531l.01639.20977c.01512.19555.0303.39109.04922.58821.05169.47544.1185,1.0369.22236,1.59632a12.01106,12.01106,0,0,0,.38356,1.6027l.02657.0829a1.06994,1.06994,0,0,0,2.06447-.10856c.03747-.17724.068-.35616.09753-.52917.01536-.09.03072-.18013.04777-.27423l.11669-.79424c.03145-.1976.0541-.39713.076-.59.008-.07.11639-1.008.11639-1.008.01717-.1723.03151-.34459.04591-.51689.00777-.09325.01554-.18651.02385-.28133.007-.0935.01542-.187.02386-.28037.01524-.16965.031-.34507.03813-.51749l.04265-.7999c.00139-.09266.004-.18531.00651-.278.00476-.17024.00964-.34627.00693-.5205A1.68238,1.68238,0,0,0,24.83079,23.43012Z"/><path fill="url(#Ui1GmBv0kJW_D8wG~otuIq)" d="M24.49846,23.11712h0a1.84659,1.84659,0,0,0-1.77439,1.91394l.02947,2.20592a.68586.68586,0,0,0,.37791.61015,3.39371,3.39371,0,0,0,2.86715-.03155.687.687,0,0,0,.35434-.61637l-.0296-2.21623A1.84658,1.84658,0,0,0,24.49846,23.11712Z"/><path fill="url(#Ui1GmBv0kJW_D8wG~otuIr)" d="M25.50322,30.77965a1.127,1.127,0,0,0-1.53391-.43544,3.33067,3.33067,0,0,0-.39591.26061l-.06254.04784c-.03915.02976-.07825.05952-.1188.09253l-.16687.14422a6.53365,6.53365,0,0,0-.627.63,7.4316,7.4316,0,0,0-1.00937,1.45294c-.12832.24146-.24627.49484-.36031.73991-.133.28591-.27061.58158-.42357.85509-.13537.24157-.257.52456-.40787.78006a3.58194,3.58194,0,0,1-.50232.68838.735.735,0,0,0-.163.96706.82167.82167,0,0,0,.675.3529.92474.92474,0,0,0,.46719-.2267l.20294-.12752c.26537-.184.5278-.33291.73179-.50785l.65183-.58918.65008-.58942c.2229-.19988.43959-.39712.63894-.6099a8.16839,8.16839,0,0,0,.57544-.6664,8.0358,8.0358,0,0,0,.51116-.72015,6.90336,6.90336,0,0,0,.43417-.78509l.09536-.20591c.01994-.04614.0385-.09337.05705-.1406l.02922-.07374a3.63227,3.63227,0,0,0,.14736-.45833l.01421-.05747A1.12378,1.12378,0,0,0,25.50322,30.77965Z"/><ellipse cx="18.017" cy="37.946" fill="url(#Ui1GmBv0kJW_D8wG~otuIs)" rx="2.402" ry=".628" transform="rotate(-11.925 18.017 37.946)"/><path fill="url(#Ui1GmBv0kJW_D8wG~otuIt)" d="M21.02708,36.95291,20.25414,35.648s-.37946.41644-.58425.621a5.257,5.257,0,0,0-.5165-.1192,4.05476,4.05476,0,0,0-2.95709,1.20313c-.862.85542-.57035,1.12772-.4762,1.209.28505.246,1.06709-.51164,1.63808-.86172s1.33537.62906,2.35532.30208a1.3576,1.3576,0,0,0,.66912-.44485l.00012.00014Z"/></svg>