<svg xmlns="http://www.w3.org/2000/svg" viewBox="0 0 30 30"><path d="M24,4H6C4.895,4,4,4.895,4,6v18c0,1.105,0.895,2,2,2h18c1.105,0,2-0.895,2-2V6C26,4.895,25.105,4,24,4z M9,16 c-0.552,0-1-0.448-1-1c0-0.552,0.448-1,1-1s1,0.448,1,1C10,15.552,9.552,16,9,16z M21,16h-8c-0.552,0-1-0.448-1-1 c0-0.552,0.448-1,1-1h8c0.552,0,1,0.448,1,1C22,15.552,21.552,16,21,16z M9,10c-0.552,0-1-0.448-1-1c0-0.552,0.448-1,1-1 s1,0.448,1,1C10,9.552,9.552,10,9,10z M21,10h-8c-0.552,0-1-0.448-1-1c0-0.552,0.448-1,1-1h8c0.552,0,1,0.448,1,1 C22,9.552,21.552,10,21,10z M9,22c-0.552,0-1-0.448-1-1c0-0.552,0.448-1,1-1s1,0.448,1,1C10,21.552,9.552,22,9,22z M21,22h-8 c-0.552,0-1-0.448-1-1c0-0.552,0.448-1,1-1h8c0.552,0,1,0.448,1,1C22,21.552,21.552,22,21,22z"/></svg>