<svg xmlns="http://www.w3.org/2000/svg" viewBox="0 0 40 40"><path fill="#a6714e" d="M20,37.5c-8.145,0-10.5-2.224-10.5-9.917c0-0.909,0.069-1.834,0.205-2.751l0.145-0.973 l-4.454,2.335C5.01,26.397,4.595,26.5,4.163,26.5c-0.993,0-1.897-0.546-2.358-1.426c-0.33-0.629-0.396-1.349-0.184-2.027 c0.211-0.678,0.675-1.233,1.304-1.563l12.632-6.644c0.573-0.356,1.14-0.633,1.716-0.842l0.721-0.261l-0.026-0.027l0.173,0.026 l0.092-0.021C18.867,13.57,19.444,13.5,20,13.5s1.133,0.07,1.767,0.215l0.092,0.021l0.173-0.026l-0.026,0.027l0.721,0.261 c0.576,0.208,1.143,0.486,1.684,0.824l12.663,6.661c0.63,0.331,1.093,0.886,1.305,1.564c0.212,0.678,0.146,1.398-0.184,2.027 c-0.461,0.879-1.364,1.426-2.358,1.426l0,0c-0.433,0-0.847-0.103-1.233-0.305l-4.454-2.335l0.145,0.973 c0.136,0.917,0.205,1.842,0.205,2.751C30.5,35.276,28.145,37.5,20,37.5z"/><path fill="#7a4f34" d="M20,14c0.517,0,1.059,0.066,1.655,0.203l0.184,0.042l0.069-0.01l0.648,0.234 c0.543,0.196,1.078,0.458,1.589,0.777l0.031,0.02l0.033,0.017l12.632,6.644c0.511,0.268,0.887,0.719,1.059,1.27 s0.119,1.135-0.149,1.646C37.378,25.556,36.644,26,35.837,26c-0.35,0-0.687-0.083-1-0.248l-3.582-1.878l-1.742-0.913l0.288,1.945 C29.933,25.8,30,26.701,30,27.583C30,34.976,27.85,37,20,37s-10-2.024-10-9.417c0-0.883,0.067-1.784,0.199-2.677l0.288-1.945 l-1.742,0.913l-3.582,1.878C4.85,25.917,4.514,26,4.163,26c-0.807,0-1.541-0.444-1.916-1.158 c-0.268-0.511-0.321-1.096-0.149-1.646s0.548-1.002,1.06-1.27l12.631-6.643l0.033-0.017l0.031-0.02 c0.512-0.319,1.046-0.581,1.589-0.777l0.648-0.234l0.069,0.01l0.184-0.042C18.941,14.066,19.483,14,20,14 M23.4,13l-1.522,0.228 C21.267,13.088,20.642,13,20,13s-1.267,0.088-1.878,0.228L16.6,13l0.503,0.528c-0.617,0.223-1.21,0.514-1.779,0.87L2.693,21.041 c-1.546,0.811-2.142,2.721-1.331,4.266C1.927,26.384,3.026,27,4.163,27c0.495,0,0.996-0.116,1.465-0.362l3.582-1.878 C9.075,25.674,9,26.617,9,27.583C9,35.637,11.75,38,20,38s11-2.363,11-10.417c0-0.967-0.075-1.91-0.21-2.824l3.582,1.878 C34.84,26.884,35.342,27,35.837,27c1.137,0,2.236-0.616,2.801-1.693c0.811-1.546,0.215-3.456-1.331-4.266l-12.631-6.643 c-0.568-0.355-1.162-0.647-1.779-0.87L23.4,13L23.4,13z"/><path fill="#a6714e" d="M24.17,3.757c1.472-1.42,2.728-2.257,3.401-2.257c3.591,0,4.929,2.594,4.929,4.229 c0,1.534-1.121,2.854-3.519,4.136L24.17,3.757z"/><path fill="#7a4f34" d="M27.571,2C31.186,2,32,4.762,32,5.729c0,1.256-0.922,2.377-2.888,3.494l-4.266-5.417 C26.366,2.397,27.262,2,27.571,2 M27.571,1c-1.274,0-3.338,1.981-4.071,2.714l5.345,6.786C30.784,9.518,33,8.029,33,5.729 C33,4.033,31.643,1,27.571,1L27.571,1z"/><path fill="#a6714e" d="M11.019,9.865C8.621,8.583,7.5,7.263,7.5,5.729C7.5,4.094,8.838,1.5,12.429,1.5 c0.673,0,1.93,0.837,3.401,2.257L11.019,9.865z"/><path fill="#7a4f34" d="M12.429,2c0.309,0,1.205,0.397,2.726,1.806l-4.266,5.417C8.922,8.106,8,6.985,8,5.729 C8,4.762,8.814,2,12.429,2 M12.429,1C8.357,1,7,4.033,7,5.729c0,2.3,2.216,3.789,4.155,4.771L16.5,3.714 C15.767,2.981,13.703,1,12.429,1L12.429,1z"/><path fill="#e6a67c" d="M27,30.4c0,4.639-1.75,5.6-7,5.6s-7-0.961-7-5.6s3.134-8.4,7-8.4S27,25.761,27,30.4z"/><path fill="#e6a67c" d="M28.947,38.5c-0.755,0-1.466-0.187-2.114-0.556c-2.337-1.331-3.036-4.633-1.558-7.361 c1.03-1.902,2.861-3.083,4.777-3.083c0.755,0,1.466,0.187,2.114,0.556c2.337,1.331,3.036,4.633,1.558,7.361 C32.694,37.319,30.863,38.5,28.947,38.5z"/><path fill="#7a4f34" d="M30.053,28L30.053,28c0.667,0,1.295,0.165,1.866,0.49c2.102,1.197,2.715,4.198,1.365,6.689 C32.356,36.893,30.654,38,28.947,38c-0.667,0-1.295-0.165-1.867-0.49c-2.102-1.197-2.715-4.198-1.365-6.689 C26.644,29.107,28.346,28,30.053,28 M30.053,27c-2.017,0-4.07,1.228-5.216,3.344c-1.609,2.971-0.826,6.568,1.75,8.034 C27.326,38.8,28.134,39,28.947,39c2.017,0,4.07-1.228,5.216-3.344c1.609-2.971,0.826-6.568-1.75-8.034 C31.674,27.2,30.866,27,30.053,27L30.053,27z"/><path fill="#e6a67c" d="M11.053,38.5c-1.916,0-3.747-1.181-4.777-3.083c-1.478-2.728-0.779-6.031,1.558-7.361 C8.481,27.687,9.192,27.5,9.947,27.5c1.916,0,3.747,1.181,4.777,3.083c1.478,2.728,0.779,6.031-1.558,7.361 C12.519,38.313,11.808,38.5,11.053,38.5C11.053,38.5,11.053,38.5,11.053,38.5z"/><path fill="#7a4f34" d="M9.947,28c1.706,0,3.409,1.107,4.337,2.821c1.35,2.491,0.737,5.492-1.365,6.689 C12.348,37.835,11.72,38,11.053,38c-1.706,0-3.409-1.107-4.337-2.821c-1.35-2.491-0.737-5.492,1.365-6.689 C8.652,28.165,9.28,28,9.947,28 M9.947,27c-0.814,0-1.621,0.2-2.361,0.621c-2.576,1.467-3.359,5.064-1.75,8.034 C6.983,37.772,9.036,39,11.053,39c0.814,0,1.621-0.2,2.361-0.621c2.576-1.467,3.359-5.064,1.75-8.034 C14.017,28.228,11.964,27,9.947,27L9.947,27z"/><g><path fill="#a6714e" d="M20,20.5c-5.238,0-9.5-4.262-9.5-9.5s4.262-9.5,9.5-9.5s9.5,4.262,9.5,9.5S25.238,20.5,20,20.5z"/><path fill="#7a4f34" d="M20,2c4.963,0,9,4.037,9,9c0,4.963-4.037,9-9,9s-9-4.037-9-9C11,6.037,15.037,2,20,2 M20,1 c-5.523,0-10,4.477-10,10c0,5.523,4.477,10,10,10s10-4.477,10-10C30,5.477,25.523,1,20,1L20,1z"/></g><path fill="#36404d" d="M22.714 7.7860000000000005A1.357 1.357 0 1 0 22.714 10.5 1.357 1.357 0 1 0 22.714 7.7860000000000005zM17.286 7.7860000000000005A1.357 1.357 0 1 0 17.286 10.5 1.357 1.357 0 1 0 17.286 7.7860000000000005z"/><g><path fill="#e6a67c" d="M20 9A5 5 0 1 0 20 19A5 5 0 1 0 20 9Z"/></g><g><path fill="#7a4f34" d="M20 10A1 1 0 1 0 20 12A1 1 0 1 0 20 10Z"/></g></svg>