<svg xmlns="http://www.w3.org/2000/svg" width="512" height="512" viewBox="0 0 512 512"><path fill="#337180" d="M256,7.9C119,7.9,7.9,119,7.9,256C7.9,393,119,504.1,256,504.1c137,0,248.1-111.1,248.1-248.1C504.1,119,393,7.9,256,7.9z"/><path fill="#F7B034" d="M414.3,220.8l-276.4,18.6c0,0-64.9,59.9-44.5,85.9c19.8,25.2,57.7,60.1,129.8,43.3c0,0,125.4-40.9,161.4-64.9C384.7,303.7,468.4,271.3,414.3,220.8z"/><path fill="#EAA607" d="M414.3,220.8C401.1,85,270.1,99.4,270.1,99.4c-141.8,16.8-136.2,151.8-129.8,161c20,28.8,78,45.3,107.3,54.5C307,333.3,355,304.5,355,304.5C434.3,275.7,414.3,220.8,414.3,220.8z"/><path fill="#F9B121" d="M364.6,124.3c0,0-14.4-23.2-38.5-24.8c-71.5-4.8-166.2,47.5-181.4,166.8c0,0,13.4,13.4,31,22.2c19.9,9.9,51.7,19.8,51.7,19.8S181.2,137.9,364.6,124.3z"/><path fill="#FFC364" d="M326.2,99.4c-71.5-4.8-166.2,47.5-181.4,166.8c0,0,13.4,13.4,31,22.2c0,0-0.2-83.3,47.9-129c47.3-44.9,127.9-49.5,127.9-49.5C345.2,104.8,336.6,100.1,326.2,99.4z"/></svg>