<svg xmlns="http://www.w3.org/2000/svg" viewBox="0 0 40 40"><path fill="#bae0bd" d="M33.5,35.5v-5h-27v5h-2V28c0-0.827,0.673-1.5,1.5-1.5h28c0.827,0,1.5,0.673,1.5,1.5v7.5H33.5z"/><path fill="#5e9c76" d="M34,27c0.551,0,1,0.449,1,1v2v1v4h-1v-4v-1h-1H7H6v1v4H5v-4v-1v-2c0-0.551,0.449-1,1-1H34 M34,26H6 c-1.105,0-2,0.895-2,2v2v1v5h3v-5h26v5h3v-5v-1v-2C36,26.895,35.105,26,34,26L34,26z"/><path fill="#bae0bd" d="M30.036,26h-8.052l-0.828,2h-3.31l-0.828-2H8.964c-0.094,0.68-0.031,1.391,0.25,2.07L10.428,31H17h2.087h0.825H22h6.572l1.214-2.93C30.067,27.391,30.13,26.68,30.036,26z"/><path fill="#4e7ab5" d="M25 22L14 22 14 28 19.5 27.006 25 28z"/><path fill="#8bb7f0" d="M22.993,35.5c-0.195,0-0.387-0.038-0.568-0.113c-0.764-0.316-1.128-1.196-0.812-1.96l3.091-7.461 c0.232-0.562,0.778-0.925,1.391-0.925c0.196,0,0.388,0.039,0.569,0.114c0.764,0.316,1.128,1.196,0.812,1.959l-3.091,7.461 C24.152,35.137,23.605,35.5,22.993,35.5z"/><path fill="#4e7ab5" d="M26.095,25.54L26.095,25.54c0.13,0,0.256,0.025,0.377,0.075c0.509,0.211,0.752,0.797,0.541,1.307 l-3.091,7.461C23.768,34.758,23.403,35,22.994,35c-0.13,0-0.257-0.025-0.377-0.075c-0.509-0.211-0.752-0.797-0.541-1.307 l3.091-7.461C25.321,25.782,25.686,25.54,26.095,25.54 M26.095,24.54c-0.786,0-1.535,0.466-1.853,1.234l-3.091,7.461 c-0.421,1.016,0.066,2.192,1.082,2.613C22.482,35.951,22.74,36,22.994,36c0.786,0,1.535-0.466,1.853-1.234l3.091-7.461 c0.421-1.016-0.066-2.192-1.082-2.613C26.607,24.589,26.349,24.54,26.095,24.54L26.095,24.54z"/><path fill="#8bb7f0" d="M16.007,35.5c-0.612,0-1.159-0.363-1.392-0.925l-3.091-7.461c-0.316-0.764,0.048-1.643,0.812-1.959 c0.182-0.075,0.373-0.114,0.569-0.114c0.612,0,1.158,0.363,1.391,0.925l3.091,7.461c0.316,0.764-0.048,1.644-0.812,1.96 C16.394,35.462,16.202,35.5,16.007,35.5L16.007,35.5z"/><path fill="#4e7ab5" d="M12.905,25.54c0.409,0,0.774,0.242,0.929,0.617l3.091,7.461c0.211,0.509-0.032,1.096-0.541,1.307 C16.263,34.975,16.136,35,16.006,35c-0.409,0-0.774-0.242-0.929-0.617l-3.091-7.461c-0.211-0.509,0.032-1.096,0.541-1.307 C12.648,25.566,12.775,25.54,12.905,25.54 M12.905,24.54c-0.254,0-0.512,0.049-0.76,0.151c-1.016,0.421-1.503,1.597-1.082,2.613 l3.091,7.461C14.471,35.534,15.221,36,16.006,36c0.254,0,0.512-0.049,0.76-0.151c1.016-0.421,1.503-1.597,1.082-2.613l-3.091-7.461 C14.44,25.006,13.69,24.54,12.905,24.54L12.905,24.54z"/><path fill="#8bb7f0" d="M21.014,26.499c-0.437,0-0.852-0.187-1.139-0.513L19.5,25.56l-0.375,0.426 c-0.287,0.326-0.702,0.513-1.139,0.513c-0.227,0-0.444-0.05-0.648-0.148L12.4,23.921c-0.563-0.275-0.9-0.821-0.9-1.392 c0-0.155,0.019-0.289,0.057-0.409l2.317-6.102C14.7,13.881,16.713,12.5,19,12.5h1c2.287,0,4.3,1.381,5.126,3.52l0.094,0.242 l0.005,0.001l2.107,5.574l0.12,0.308c0.029,0.096,0.048,0.229,0.048,0.385c0,0.57-0.337,1.117-0.839,1.36l-5.002,2.461 C21.458,26.449,21.24,26.499,21.014,26.499z"/><path fill="#4e7ab5" d="M20,13c2.079,0,3.908,1.256,4.66,3.2l0.134,0.336l2.087,5.517l0.013,0.028l0.078,0.209 C26.991,22.358,27,22.436,27,22.53c0,0.383-0.224,0.749-0.568,0.916l-0.054,0.027L21.444,25.9 c-0.135,0.066-0.28,0.099-0.429,0.099c-0.289,0-0.574-0.129-0.764-0.344l-0.75-0.851l-0.75,0.851 c-0.193,0.219-0.471,0.344-0.764,0.344c-0.15,0-0.294-0.033-0.424-0.096l-4.934-2.427l-0.071-0.035 C12.224,23.279,12,22.913,12,22.53c0-0.095,0.009-0.174,0.028-0.242l0.061-0.165l0.046-0.11l2.005-5.302l0.002,0l0.198-0.512 C15.092,14.256,16.921,13,19,13H20 M20,12h-1h0h0c-2.551,0-4.724,1.594-5.592,3.839c-0.002,0-0.004,0.001-0.007,0.001L11.2,21.66 l-0.03,0.07l-0.09,0.24C11.02,22.16,11,22.35,11,22.53c0,0.74,0.42,1.47,1.12,1.81l0.06,0.03l4.94,2.43 c0.279,0.135,0.574,0.199,0.866,0.199c0.573,0,1.13-0.246,1.514-0.683c0.385,0.436,0.942,0.683,1.514,0.683 c0.292,0,0.587-0.064,0.866-0.199l4.94-2.43l0.06-0.03C27.58,24,28,23.27,28,22.53c0-0.18-0.02-0.37-0.08-0.56l-0.09-0.24 l-0.03-0.07l-2.201-5.82c-0.003,0-0.004,0-0.007,0C24.725,13.595,22.551,12,20,12L20,12z"/><path fill="none" stroke="#4e7ab5" stroke-linecap="round" d="M25.245 16.317l2.087 5.52.12.308c.029.096.048.229.048.385 0 .57-.337 1.117-.839 1.36l-5.002 2.461c-.204.099-.425.149-.653.149-.577 0-1.109-.329-1.355-.838-.101-.201-.15-.418-.15-.652 0-.575.33-1.109.841-1.361l3.781-1.869-1.505-4.156M16.393 17.595l-1.515 4.185 3.78 1.869C19.17 23.9 19.5 24.435 19.5 25.01c0 .234-.05.451-.146.645-.25.516-.782.845-1.359.845l0 0c-.229 0-.449-.051-.656-.15L12.4 23.921c-.563-.275-.9-.821-.9-1.392 0-.155.019-.289.057-.409l2.215-5.847"/><g><path fill="#ffeea3" d="M19.5 3.5A4 4 0 1 0 19.5 11.5A4 4 0 1 0 19.5 3.5Z"/><path fill="#ba9b48" d="M19.5,4C21.43,4,23,5.57,23,7.5c0,1.93-1.57,3.5-3.5,3.5S16,9.43,16,7.5C16,5.57,17.57,4,19.5,4 M19.5,3C17.015,3,15,5.015,15,7.5c0,2.485,2.015,4.5,4.5,4.5S24,9.985,24,7.5C24,5.015,21.985,3,19.5,3L19.5,3z"/></g></svg>