<svg xmlns="http://www.w3.org/2000/svg" viewBox="0 0 48 48"><path fill="#f45e4c" d="M42,4v33.5H11V3h30C41.55,3,42,3.45,42,4z"/><linearGradient id="jPkDvvQugvCBQkbLBo~Tza" x1="12" x2="42" y1="41" y2="41" gradientUnits="userSpaceOnUse"><stop offset="0" stop-color="#e53935"/><stop offset="1" stop-color="#c62828"/></linearGradient><path fill="url(#jPkDvvQugvCBQkbLBo~Tza)" d="M39.5,37v7H12v1h29c0.552,0,1-0.448,1-1v-7H39.5z"/><path fill="#e53935" d="M11,3c-0.171,0-0.339,0.05-0.5,0.127C10.191,3.275,9.914,3.5,9.75,3.5C9.5,3.5,9,3,8.5,3H8 C6.895,3,6,3.895,6,5v34.5h0.5V39c0-0.828,0.672-1.5,1.5-1.5h4V3H11z"/><path fill="#551c1c" d="M9,37.5H8c-0.828,0-1.5,0.672-1.5,1.5v4c0,0.828,0.672,1.5,1.5,1.5h1V37.5z"/><path fill="#e53935" d="M9.75,3.5C9.586,3.5,9.309,3.278,9,3.13V37.5h1.5V3.127C10.191,3.275,9.914,3.5,9.75,3.5z"/><path fill="#de3531" d="M9.086,3.175v34.323C9.093,37.499,9.742,37.5,9.75,37.5s0.657-0.001,0.664-0.002V3.173 C10.142,3.303,9.897,3.5,9.75,3.5S9.358,3.305,9.086,3.175z"/><path fill="#d8312e" d="M9.171,3.221v34.275C9.185,37.498,9.734,37.5,9.75,37.5s0.565-0.002,0.579-0.004V3.219 C10.092,3.331,9.879,3.5,9.75,3.5S9.408,3.333,9.171,3.221z"/><path fill="#d12d2a" d="M9.257,3.267v34.228C9.278,37.497,9.726,37.5,9.75,37.5s0.472-0.003,0.493-0.006V3.265 C10.043,3.359,9.861,3.5,9.75,3.5S9.457,3.361,9.257,3.267z"/><path fill="#cb2827" d="M9.343,3.312v34.18C9.371,37.496,9.718,37.5,9.75,37.5s0.379-0.004,0.407-0.007V3.311 C9.994,3.387,9.844,3.5,9.75,3.5S9.506,3.388,9.343,3.312z"/><path fill="#c42423" d="M9.429,3.358v34.133C9.463,37.495,9.709,37.5,9.75,37.5s0.287-0.005,0.321-0.009V3.357 C9.945,3.415,9.826,3.5,9.75,3.5S9.555,3.416,9.429,3.358z"/><path fill="#be2020" d="M9.514,3.404v34.085C9.556,37.493,9.701,37.5,9.75,37.5s0.194-0.007,0.236-0.011V3.403 C9.896,3.443,9.808,3.5,9.75,3.5S9.604,3.444,9.514,3.404z"/><path fill="#b71c1c" d="M9.75,3.5c-0.041,0-0.097-0.029-0.15-0.051v34.038C9.648,37.492,9.693,37.5,9.75,37.5 s0.102-0.008,0.15-0.013V3.449C9.847,3.471,9.791,3.5,9.75,3.5z"/><g><path fill="#b8b7aa" d="M41,38H9c-0.551,0-1,0.673-1,1.5v3C8,43.327,8.449,44,9,44h32c0,0-0.5-0.75-0.5-3S41,38,41,38z"/><path fill="#bcbbae" d="M40.955,38.167H9.222c-0.551,0-1,0.673-1,1.5v2.667c0,0.827,0.449,1.5,1,1.5h31.732 C40.949,43.789,40.5,43.067,40.5,41S40.949,38.211,40.955,38.167z"/><path fill="#c1c0b2" d="M40.909,38.333H9.444c-0.552,0-1,0.673-1,1.5v2.333c0,0.827,0.448,1.5,1,1.5h31.465 C40.897,43.577,40.5,42.885,40.5,41S40.897,38.423,40.909,38.333z"/><path fill="#c5c4b6" d="M40.864,38.5H9.667c-0.552,0-1,0.672-1,1.5v2c0,0.828,0.448,1.5,1,1.5h31.197 C40.846,43.366,40.5,42.702,40.5,41S40.846,38.634,40.864,38.5z"/><path fill="#cac8ba" d="M40.818,38.667H9.889c-0.552,0-1,0.672-1,1.5v1.667c0,0.828,0.448,1.5,1,1.5h30.929 C40.795,43.154,40.5,42.52,40.5,41S40.795,38.846,40.818,38.667z"/><path fill="#cecdbf" d="M40.773,38.833H10.111c-0.552,0-1,0.672-1,1.5v1.333c0,0.828,0.448,1.5,1,1.5h30.662 C40.743,42.943,40.5,42.337,40.5,41S40.743,39.057,40.773,38.833z"/><path fill="#d3d1c3" d="M40.727,39H10.333c-0.552,0-1,0.672-1,1.5v1c0,0.828,0.448,1.5,1,1.5h30.394 c-0.035-0.269-0.227-0.845-0.227-2S40.692,39.269,40.727,39z"/><path fill="#d7d5c7" d="M40.682,39.167H10.556c-0.552,0-1,0.672-1,1.5v0.667c0,0.828,0.448,1.5,1,1.5h30.126 C40.64,42.52,40.5,41.972,40.5,41S40.64,39.48,40.682,39.167z"/><path fill="#dcdacb" d="M40.636,39.333H10.778c-0.552,0-1,0.672-1,1.5v0.333c0,0.828,0.448,1.5,1,1.5h29.858 C40.589,42.308,40.5,41.789,40.5,41S40.589,39.692,40.636,39.333z"/><path fill="#e0decf" d="M40.5,41c0-0.607,0.038-1.097,0.091-1.5H11c-0.552,0-1,0.672-1,1.5l0,0c0,0.828,0.448,1.5,1,1.5 h29.591C40.538,42.097,40.5,41.607,40.5,41z"/></g><path fill="#e53935" d="M41,37H12v1h29.25c0.414,0,0.75-0.336,0.75-0.75V36C42,36.552,41.552,37,41,37z"/><linearGradient id="jPkDvvQugvCBQkbLBo~Tzb" x1="6" x2="12" y1="41" y2="41" gradientUnits="userSpaceOnUse"><stop offset="0" stop-color="#d32f2f"/><stop offset="1" stop-color="#b71c1c"/></linearGradient><path fill="url(#jPkDvvQugvCBQkbLBo~Tzb)" d="M8,38c0,0,0,0,0.5,0s1,0.5,1.25,0.5S10.5,38,11,38c0.098,0,0.472,0,1,0v-1 c-0.587,0-0.949,0-1,0c-0.5,0-1,0.5-1.25,0.5S9,37,8.5,37S8,37,8,37c-1.105,0-2,0.895-2,2v4c0,1.105,0.895,2,2,2h0.5 c0.5,0,1-0.5,1.25-0.5S10.5,45,11,45h1v-1h-1c-0.5,0-1-0.5-1.25-0.5S9,44,8.5,44H8c-0.552,0-1-0.448-1-1v-4C7,38.448,7.448,38,8,38 z"/></svg>