<svg xmlns="http://www.w3.org/2000/svg" width="48" height="48" viewBox="0 0 48 48"><path fill="#841507" d="M35,26.001V28H14v-1.999L9,13c0-4.418,3.582-8,8-8h14c4.418,0,8,3.582,8,8L35,26.001z"/><path fill="#BC2304" d="M36,26H13l-6,9h34L36,26L36,26z"/><path fill="#FFE0B2" d="M34.867,27.988C32.438,22.906,32,26.001,24,26c-6.887-0.001-7-3-10,2l-3.263,5h0.513H37h0.601L34.867,27.988z"/><path fill="#FFB300" d="M21.78,28C21.301,27.468,21,26.771,21,26c0-1.654,1.346-3,3-3s3,1.346,3,3c0,0.771-0.301,1.468-0.78,2h2.356C28.846,27.387,29,26.712,29,26c0-2.757-2.243-5-5-5s-5,2.243-5,5c0,0.712,0.154,1.387,0.424,2H21.78z"/><path fill="#009688" d="M23 17L25 17 27 19 24 21.999 21 19z"/><path fill="#DD2C00" d="M41 40c0 2.762-2.238 5-5 5H12c-2.762 0-5-2.238-5-5v-5h34V40zM15 26v-.185L10.071 13h27.882l-3.909 12.707L34.034 26h2.013l3.909-12.706L40 13c0-4.962-4.037-9-9-9H17c-4.962 0-9 4.038-9 9v.186L12.928 26H15z"/><g><path fill="#FFA726" d="M24 39A1 1 0 1 0 24 41 1 1 0 1 0 24 39zM28 39A1 1 0 1 0 28 41 1 1 0 1 0 28 39zM20 39A1 1 0 1 0 20 41 1 1 0 1 0 20 39zM16 39A1 1 0 1 0 16 41 1 1 0 1 0 16 39zM12 39A1 1 0 1 0 12 41 1 1 0 1 0 12 39zM36 39A1 1 0 1 0 36 41 1 1 0 1 0 36 39zM32 39A1 1 0 1 0 32 41 1 1 0 1 0 32 39zM24 2c-1.104 0-2 .896-2 2h4C26 2.896 25.104 2 24 2z"/></g></svg>