<svg xmlns="http://www.w3.org/2000/svg" xmlns:xlink="http://www.w3.org/1999/xlink" viewBox="0 0 48 48"><defs><linearGradient id="10Dxb~3vYpxwNBkiP0Ljqc" x1="24" x2="24" y1="6" y2="42" gradientTransform="rotate(-90 24 24)" gradientUnits="userSpaceOnUse"><stop offset="0" stop-color="#735220"/><stop offset=".039" stop-color="#775925"/><stop offset=".146" stop-color="#7f642d"/><stop offset=".295" stop-color="#846b32"/><stop offset=".712" stop-color="#856d33"/></linearGradient><linearGradient id="10Dxb~3vYpxwNBkiP0Ljqd" x1="24" x2="24" y1="8" y2="39" gradientUnits="userSpaceOnUse"><stop offset=".028" stop-color="#dbdabf"/><stop offset=".044" stop-color="#dcdcc4"/><stop offset=".12" stop-color="#e1e4d5"/><stop offset=".214" stop-color="#e5e9e0"/><stop offset=".346" stop-color="#e6ece7"/><stop offset=".712" stop-color="#e7ede9"/></linearGradient><linearGradient id="10Dxb~3vYpxwNBkiP0Ljqa" x1="33" x2="33" y1="13" y2="3" gradientUnits="userSpaceOnUse"><stop offset=".077" stop-color="#382908"/><stop offset=".245" stop-color="#6e6550"/><stop offset=".402" stop-color="#9b978d"/><stop offset=".517" stop-color="#b6b6b3"/><stop offset=".577" stop-color="#c1c2c1"/><stop offset=".715" stop-color="#c4c4c4"/><stop offset=".718" stop-color="#c3c3c2"/><stop offset=".772" stop-color="#abafa4"/><stop offset=".818" stop-color="#9da292"/><stop offset=".851" stop-color="#989e8b"/><stop offset=".894" stop-color="#aeb2a5"/><stop offset=".963" stop-color="#cdcecb"/><stop offset="1" stop-color="#d9d9d9"/></linearGradient><linearGradient id="10Dxb~3vYpxwNBkiP0Ljqb" x1="32" x2="34" y1="8" y2="8" gradientUnits="userSpaceOnUse"><stop offset="0" stop-color="#383008"/><stop offset=".5" stop-color="#393109" stop-opacity="0"/><stop offset="1" stop-color="#383008"/></linearGradient><linearGradient id="10Dxb~3vYpxwNBkiP0Ljqe" x1="27" x2="27" y1="13" y2="3" xlink:href="#10Dxb~3vYpxwNBkiP0Ljqa"/><linearGradient id="10Dxb~3vYpxwNBkiP0Ljqf" x1="26" x2="28" y1="8" y2="8" xlink:href="#10Dxb~3vYpxwNBkiP0Ljqb"/><linearGradient id="10Dxb~3vYpxwNBkiP0Ljqg" x1="21" x2="21" y1="13" y2="3" xlink:href="#10Dxb~3vYpxwNBkiP0Ljqa"/><linearGradient id="10Dxb~3vYpxwNBkiP0Ljqh" x1="20" x2="22" y1="8" y2="8" xlink:href="#10Dxb~3vYpxwNBkiP0Ljqb"/><linearGradient id="10Dxb~3vYpxwNBkiP0Ljqi" x1="15" x2="15" y1="13" y2="3" xlink:href="#10Dxb~3vYpxwNBkiP0Ljqa"/><linearGradient id="10Dxb~3vYpxwNBkiP0Ljqj" x1="14" x2="16" y1="8" y2="8" xlink:href="#10Dxb~3vYpxwNBkiP0Ljqb"/></defs><g data-name="spiral notepad"><rect width="36" height="30" x="6" y="10" fill="#59421b" rx="4" transform="rotate(90 24 25)"/><rect width="36" height="30" x="6" y="9" fill="url(#10Dxb~3vYpxwNBkiP0Ljqc)" rx="4" transform="rotate(90 24 24)"/><rect width="26" height="31" x="11" y="9" fill="#ced1c0" rx="2"/><rect width="26" height="31" x="11" y="8" fill="url(#10Dxb~3vYpxwNBkiP0Ljqd)" rx="2"/><rect width="20" height="1" x="14" y="17" fill="#ced1c0"/><rect width="20" height="1" x="14" y="20.5" fill="#ced1c0"/><rect width="20" height="1" x="14" y="24" fill="#ced1c0"/><rect width="20" height="1" x="14" y="27.5" fill="#ced1c0"/><rect width="20" height="1" x="14" y="31" fill="#ced1c0"/><rect width="20" height="1" x="14" y="34.5" fill="#ced1c0"/><circle cx="15" cy="12" r="2" fill="#383008"/><circle cx="21" cy="12" r="2" fill="#383008"/><circle cx="27" cy="12" r="2" fill="#383008"/><circle cx="33" cy="12" r="2" fill="#383008"/><path fill="url(#10Dxb~3vYpxwNBkiP0Ljqa)" d="M33,13a1,1,0,0,1-1-1V4a1,1,0,0,1,2,0v8A1,1,0,0,1,33,13Z"/><path fill="url(#10Dxb~3vYpxwNBkiP0Ljqb)" d="M33,13a1,1,0,0,1-1-1V4a1,1,0,0,1,2,0v8A1,1,0,0,1,33,13Z" opacity=".48"/><path fill="url(#10Dxb~3vYpxwNBkiP0Ljqe)" d="M27,13a1,1,0,0,1-1-1V4a1,1,0,0,1,2,0v8A1,1,0,0,1,27,13Z"/><path fill="url(#10Dxb~3vYpxwNBkiP0Ljqf)" d="M27,13a1,1,0,0,1-1-1V4a1,1,0,0,1,2,0v8A1,1,0,0,1,27,13Z" opacity=".48"/><path fill="url(#10Dxb~3vYpxwNBkiP0Ljqg)" d="M21,13a1,1,0,0,1-1-1V4a1,1,0,0,1,2,0v8A1,1,0,0,1,21,13Z"/><path fill="url(#10Dxb~3vYpxwNBkiP0Ljqh)" d="M21,13a1,1,0,0,1-1-1V4a1,1,0,0,1,2,0v8A1,1,0,0,1,21,13Z" opacity=".48"/><path fill="url(#10Dxb~3vYpxwNBkiP0Ljqi)" d="M15,13a1,1,0,0,1-1-1V4a1,1,0,0,1,2,0v8A1,1,0,0,1,15,13Z"/><path fill="url(#10Dxb~3vYpxwNBkiP0Ljqj)" d="M15,13a1,1,0,0,1-1-1V4a1,1,0,0,1,2,0v8A1,1,0,0,1,15,13Z" opacity=".48"/></g></svg>